<svg xmlns="http://www.w3.org/2000/svg" width="80" height="80" viewBox="0 0 80 80" fill="none"><path d="M73.2118 39.4171C73.2342 37.0846 72.462 35.1468 70.9907 33.8974C69.4328 32.5749 67.191 32.1316 64.9937 32.7109C61.5127 33.6286 60.428 37.1914 58.161 40.9786C57.6278 41.8693 58.276 42.9969 59.3037 42.9969C59.7572 42.9969 60.1992 42.7656 60.449 42.3481C62.6942 38.5971 63.5208 35.8569 65.6735 35.2893C67.0283 34.9321 68.3713 35.1714 69.2647 35.9301C69.9808 36.5381 70.4027 37.4578 70.5162 38.6276C68.8198 38.5846 66.9538 39.3196 65.4245 41.2474C64.201 42.7878 62.776 44.1034 61.1895 45.1576C57.5267 47.5894 53.945 48.0079 52.2233 48.2091C50.5663 48.4033 48.846 48.4033 47.1105 48.2089C46.3797 48.1268 45.719 48.6538 45.637 49.3856C45.555 50.1174 46.0818 50.7771 46.8137 50.8591C48.7505 51.0761 50.6748 51.0756 52.5332 50.8578C54.4602 50.6326 58.47 50.1641 62.6647 47.3789C64.4843 46.1699 66.1153 44.6651 67.5132 42.9054C70.2215 39.4913 74.4098 42.0038 72.8712 45.9506C65.627 64.5269 49.7392 58.6091 43.164 64.5001H11.3932C8.79133 60.0751 8.68883 54.6384 11.1675 50.1439C13.6697 45.6073 18.4663 42.7421 23.6858 42.6666C23.9385 42.6629 24.1847 42.5876 24.3962 42.4496C33.7553 36.3331 42.2933 37.8696 42.1158 41.3478C42.0045 43.5241 38.8452 47.2049 30.3123 51.0086C29.6397 51.3084 29.3375 52.0968 29.6373 52.7693C29.937 53.4418 30.7252 53.7441 31.3978 53.4443C39.8245 49.6881 44.5765 45.4406 44.7788 41.4841C45.1022 35.1611 34.2563 32.9959 23.2578 40.0104C10.947 40.4661 3.056 53.3098 8.375 64.5001H8C5.7945 64.5001 4 66.2944 4 68.5001V76.0001C4 78.2058 5.7945 80.0001 8 80.0001H46C48.2055 80.0001 50 78.2058 50 76.0001V73.1991C50 72.4628 49.403 71.8658 48.6667 71.8658C47.9303 71.8658 47.3333 72.4628 47.3333 73.1991V76.0001C47.3333 76.7353 46.7352 77.3334 46 77.3334H8C7.26483 77.3334 6.66667 76.7353 6.66667 76.0001V68.5001C6.66667 67.7649 7.26483 67.1668 8 67.1668C46.184 67.1668 43.7977 67.1989 44.0935 67.1079C44.309 67.0418 44.5158 66.9106 44.6648 66.7554C49.693 61.5026 67.529 66.9888 75.3557 46.9193C76.7007 43.4688 75.2055 40.6411 73.2118 39.4171Z" fill="url(#paint0_linear_1707_7342)"></path><path d="M13.0004 70.8333C12.2641 70.8333 11.6671 71.4303 11.6671 72.1666C11.6671 72.9029 12.2641 73.4999 13.0004 73.4999H16.1671C16.9034 73.4999 17.5004 72.9029 17.5004 72.1666C17.5004 71.4303 16.9034 70.8333 16.1671 70.8333H13.0004Z" fill="url(#paint1_linear_1707_7342)"></path><path d="M22.5 29.5H48.1007C48.2065 30.5538 48.1925 31.596 48.0585 32.6108C47.6945 35.3705 50.6835 37.3393 53.0722 35.9093C55.7632 34.2983 57.713 31.6717 58.5622 28.513C58.7533 27.8018 58.3318 27.0703 57.6208 26.8792C56.9102 26.6878 56.1782 27.1095 55.987 27.8205C55.3182 30.3075 53.7965 32.3677 51.7023 33.6213C51.225 33.9073 50.6293 33.5125 50.7023 32.9597C50.9185 31.3215 50.875 29.6302 50.5728 27.933C50.4595 27.2968 49.9063 26.8333 49.2602 26.8333H22.5C18.824 26.8333 15.8333 23.8427 15.8333 20.1667V9.33333C15.8333 5.65733 18.824 2.66667 22.5 2.66667H60.5C64.176 2.66667 67.1667 5.65733 67.1667 9.33333V20.1667C67.1667 21.7537 66.5998 23.2912 65.5703 24.4955C65.0918 25.0553 65.1577 25.8968 65.7177 26.3753C66.2772 26.8538 67.119 26.7878 67.5973 26.228C69.0392 24.541 69.8333 22.3883 69.8333 20.1665V9.33333C69.8333 4.187 65.6465 0 60.5 0H22.5C17.3535 0 13.1667 4.187 13.1667 9.33333V20.1667C13.1667 25.313 17.3535 29.5 22.5 29.5Z" fill="url(#paint2_linear_1707_7342)"></path><path d="M41.5001 17.5C42.9729 17.5 44.1668 16.3061 44.1668 14.8333C44.1668 13.3605 42.9729 12.1666 41.5001 12.1666C40.0273 12.1666 38.8334 13.3605 38.8334 14.8333C38.8334 16.3061 40.0273 17.5 41.5001 17.5Z" fill="url(#paint3_linear_1707_7342)"></path><path d="M28.1671 17.5C29.6399 17.5 30.8338 16.3061 30.8338 14.8333C30.8338 13.3605 29.6399 12.1666 28.1671 12.1666C26.6944 12.1666 25.5005 13.3605 25.5005 14.8333C25.5005 16.3061 26.6944 17.5 28.1671 17.5Z" fill="url(#paint4_linear_1707_7342)"></path><path d="M54.8336 17.5C56.3063 17.5 57.5002 16.3061 57.5002 14.8333C57.5002 13.3605 56.3063 12.1666 54.8336 12.1666C53.3608 12.1666 52.1669 13.3605 52.1669 14.8333C52.1669 16.3061 53.3608 17.5 54.8336 17.5Z" fill="url(#paint5_linear_1707_7342)"></path><defs><linearGradient id="paint0_linear_1707_7342" x1="76.0861" y1="32.222" x2="76.0861" y2="70.9054" gradientUnits="userSpaceOnUse"><stop stop-color="#355580"></stop><stop offset="0.942708" stop-color="#4686C2"></stop></linearGradient><linearGradient id="paint1_linear_1707_7342" x1="17.518" y1="70.8198" x2="17.518" y2="72.9898" gradientUnits="userSpaceOnUse"><stop stop-color="#355580"></stop><stop offset="0.942708" stop-color="#4686C2"></stop></linearGradient><linearGradient id="paint2_linear_1707_7342" x1="70.0036" y1="-0.183291" x2="70.0036" y2="29.4269" gradientUnits="userSpaceOnUse"><stop stop-color="#355580"></stop><stop offset="0.942708" stop-color="#4686C2"></stop></linearGradient><linearGradient id="paint3_linear_1707_7342" x1="44.1828" y1="12.1398" x2="44.1828" y2="16.4796" gradientUnits="userSpaceOnUse"><stop stop-color="#355580"></stop><stop offset="0.942708" stop-color="#4686C2"></stop></linearGradient><linearGradient id="paint4_linear_1707_7342" x1="30.8498" y1="12.1398" x2="30.8498" y2="16.4796" gradientUnits="userSpaceOnUse"><stop stop-color="#355580"></stop><stop offset="0.942708" stop-color="#4686C2"></stop></linearGradient><linearGradient id="paint5_linear_1707_7342" x1="57.5162" y1="12.1398" x2="57.5162" y2="16.4796" gradientUnits="userSpaceOnUse"><stop stop-color="#355580"></stop><stop offset="0.942708" stop-color="#4686C2"></stop></linearGradient></defs></svg>