<svg xmlns="http://www.w3.org/2000/svg" width="80" height="80" viewBox="0 0 80 80" fill="none"><path d="M58.3838 7.86625C58.1494 7.63181 57.8315 7.50007 57.5 7.5H22.5C21.1141 7.49986 19.7674 7.96038 18.6718 8.80914C17.5761 9.6579 16.7937 10.8468 16.4475 12.1888L18.8675 12.8138C19.0752 12.0083 19.5447 11.2947 20.2023 10.7854C20.8599 10.276 21.6682 9.99972 22.5 10H56.25V16.25C56.25 17.2446 56.6451 18.1984 57.3484 18.9017C58.0516 19.6049 59.0054 20 60 20H66.25V71.25C66.25 72.2446 65.8549 73.1984 65.1517 73.9016C64.4484 74.6049 63.4946 75 62.5 75H22.5C21.5054 75 20.5516 74.6049 19.8483 73.9016C19.1451 73.1984 18.75 72.2446 18.75 71.25V42.5H16.25V71.25C16.252 72.907 16.9111 74.4956 18.0828 75.6672C19.2544 76.8389 20.843 77.498 22.5 77.5H62.5C64.157 77.498 65.7456 76.8389 66.9172 75.6672C68.0889 74.4956 68.748 72.907 68.75 71.25V18.75C68.7499 18.4185 68.6182 18.1006 68.3838 17.8663L58.3838 7.86625ZM58.75 16.25V11.7675L64.4825 17.5H60C59.6685 17.5 59.3505 17.3683 59.1161 17.1339C58.8817 16.8995 58.75 16.5815 58.75 16.25Z" fill="url(#paint0_linear_1707_7350)"></path><path d="M67.5001 2.5H27.5001C25.9774 2.49975 24.507 3.05536 23.3651 4.0625L25.0213 5.9375C25.7052 5.33263 26.587 4.99913 27.5001 5H67.5001C68.4946 5 69.4485 5.39509 70.1517 6.09835C70.855 6.80161 71.2501 7.75544 71.2501 8.75V66.25C71.2509 67.163 70.9174 68.0448 70.3126 68.7287L72.1876 70.385C73.1947 69.243 73.7503 67.7726 73.7501 66.25V8.75C73.7481 7.09301 73.089 5.50445 71.9173 4.33277C70.7456 3.1611 69.1571 2.50198 67.5001 2.5Z" fill="url(#paint1_linear_1707_7350)"></path><path d="M20 35V33.75C20.9946 33.75 21.9484 33.3549 22.6517 32.6517C23.3549 31.9484 23.75 30.9946 23.75 30C23.75 29.0054 23.3549 28.0516 22.6517 27.3483C21.9484 26.6451 20.9946 26.25 20 26.25H17.5C17.1685 26.25 16.8505 26.1183 16.6161 25.8839C16.3817 25.6495 16.25 25.3315 16.25 25C16.25 24.6685 16.3817 24.3505 16.6161 24.1161C16.8505 23.8817 17.1685 23.75 17.5 23.75H20C20.3315 23.75 20.6495 23.8817 20.8839 24.1161C21.1183 24.3505 21.25 24.6685 21.25 25H23.75C23.75 24.0054 23.3549 23.0516 22.6517 22.3483C21.9484 21.6451 20.9946 21.25 20 21.25V20H17.5V21.25C16.5054 21.25 15.5516 21.6451 14.8483 22.3483C14.1451 23.0516 13.75 24.0054 13.75 25C13.75 25.9946 14.1451 26.9484 14.8483 27.6517C15.5516 28.3549 16.5054 28.75 17.5 28.75H20C20.3315 28.75 20.6495 28.8817 20.8839 29.1161C21.1183 29.3505 21.25 29.6685 21.25 30C21.25 30.3315 21.1183 30.6495 20.8839 30.8839C20.6495 31.1183 20.3315 31.25 20 31.25H17.5C17.1685 31.25 16.8505 31.1183 16.6161 30.8839C16.3817 30.6495 16.25 30.3315 16.25 30H13.75C13.75 30.9946 14.1451 31.9484 14.8483 32.6517C15.5516 33.3549 16.5054 33.75 17.5 33.75V35H20Z" fill="url(#paint2_linear_1707_7350)"></path><path d="M31.25 27.5C31.25 25.0277 30.5169 22.611 29.1433 20.5554C27.7698 18.4998 25.8176 16.8976 23.5335 15.9515C21.2494 15.0054 18.7361 14.7579 16.3113 15.2402C13.8866 15.7225 11.6593 16.913 9.91114 18.6612C8.16298 20.4093 6.97247 22.6366 6.49016 25.0614C6.00784 27.4861 6.25539 29.9995 7.20148 32.2835C8.14758 34.5676 9.74973 36.5199 11.8053 37.8934C13.861 39.2669 16.2777 40 18.75 40C22.0641 39.9964 25.2414 38.6782 27.5848 36.3348C29.9282 33.9914 31.2463 30.8141 31.25 27.5ZM8.74998 27.5C8.74998 25.5222 9.33646 23.5888 10.4353 21.9443C11.5341 20.2998 13.0959 19.0181 14.9231 18.2612C16.7504 17.5043 18.7611 17.3063 20.7009 17.6922C22.6407 18.078 24.4225 19.0304 25.821 20.4289C27.2196 21.8275 28.172 23.6093 28.5578 25.5491C28.9437 27.4889 28.7456 29.4996 27.9888 31.3268C27.2319 33.1541 25.9502 34.7159 24.3057 35.8147C22.6612 36.9135 20.7278 37.5 18.75 37.5C16.0987 37.497 13.5569 36.4425 11.6822 34.5678C9.80748 32.6931 8.75295 30.1513 8.74998 27.5Z" fill="url(#paint3_linear_1707_7350)"></path><path d="M35 20H50V22.5H35V20Z" fill="url(#paint4_linear_1707_7350)"></path><path d="M35 15H37.5V17.5H35V15Z" fill="url(#paint5_linear_1707_7350)"></path><path d="M40 15H50V17.5H40V15Z" fill="url(#paint6_linear_1707_7350)"></path><path d="M30 38.75C29.6685 38.75 29.3505 38.8817 29.1161 39.1161C28.8817 39.3505 28.75 39.6685 28.75 40V46.25H26.25V48.75H58.75V46.25H56.25V30C56.25 29.6685 56.1183 29.3505 55.8839 29.1161C55.6495 28.8817 55.3315 28.75 55 28.75H50C49.6685 28.75 49.3505 28.8817 49.1161 29.1161C48.8817 29.3505 48.75 29.6685 48.75 30V46.25H46.25V35C46.25 34.6685 46.1183 34.3505 45.8839 34.1161C45.6495 33.8817 45.3315 33.75 45 33.75H40C39.6685 33.75 39.3505 33.8817 39.1161 34.1161C38.8817 34.3505 38.75 34.6685 38.75 35V46.25H36.25V40C36.25 39.6685 36.1183 39.3505 35.8839 39.1161C35.6495 38.8817 35.3315 38.75 35 38.75H30ZM51.25 31.25H53.75V46.25H51.25V31.25ZM41.25 36.25H43.75V46.25H41.25V36.25ZM31.25 46.25V41.25H33.75V46.25H31.25Z" fill="url(#paint7_linear_1707_7350)"></path><path d="M27.5 53.75C27.1685 53.75 26.8505 53.8817 26.6161 54.1161C26.3817 54.3505 26.25 54.6685 26.25 55V67.5C26.25 67.8315 26.3817 68.1495 26.6161 68.3839C26.8505 68.6183 27.1685 68.75 27.5 68.75H40C40.3315 68.75 40.6495 68.6183 40.8839 68.3839C41.1183 68.1495 41.25 67.8315 41.25 67.5V55C41.25 54.6685 41.1183 54.3505 40.8839 54.1161C40.6495 53.8817 40.3315 53.75 40 53.75H27.5ZM38.75 66.25H28.75V56.25H38.75V66.25Z" fill="url(#paint8_linear_1707_7350)"></path><path d="M46.25 53.75H61.25V56.25H46.25V53.75Z" fill="url(#paint9_linear_1707_7350)"></path><path d="M46.25 63.75H61.25V66.25H46.25V63.75Z" fill="url(#paint10_linear_1707_7350)"></path><path d="M46.25 58.75H61.25V61.25H46.25V58.75Z" fill="url(#paint11_linear_1707_7350)"></path><defs><linearGradient id="paint0_linear_1707_7350" x1="68.9077" y1="7.1474" x2="68.9077" y2="64.1082" gradientUnits="userSpaceOnUse"><stop stop-color="#355580"></stop><stop offset="0.942708" stop-color="#4686C2"></stop></linearGradient><linearGradient id="paint1_linear_1707_7350" x1="73.9014" y1="2.15806" x2="73.9014" y2="57.3978" gradientUnits="userSpaceOnUse"><stop stop-color="#355580"></stop><stop offset="0.942708" stop-color="#4686C2"></stop></linearGradient><linearGradient id="paint2_linear_1707_7350" x1="23.78" y1="19.9244" x2="23.78" y2="32.1303" gradientUnits="userSpaceOnUse"><stop stop-color="#355580"></stop><stop offset="0.942708" stop-color="#4686C2"></stop></linearGradient><linearGradient id="paint3_linear_1707_7350" x1="31.3251" y1="14.8741" x2="31.3251" y2="35.2172" gradientUnits="userSpaceOnUse"><stop stop-color="#355580"></stop><stop offset="0.942708" stop-color="#4686C2"></stop></linearGradient><linearGradient id="paint4_linear_1707_7350" x1="50.0451" y1="19.9874" x2="50.0451" y2="22.0217" gradientUnits="userSpaceOnUse"><stop stop-color="#355580"></stop><stop offset="0.942708" stop-color="#4686C2"></stop></linearGradient><linearGradient id="paint5_linear_1707_7350" x1="37.5075" y1="14.9874" x2="37.5075" y2="17.0217" gradientUnits="userSpaceOnUse"><stop stop-color="#355580"></stop><stop offset="0.942708" stop-color="#4686C2"></stop></linearGradient><linearGradient id="paint6_linear_1707_7350" x1="50.03" y1="14.9874" x2="50.03" y2="17.0217" gradientUnits="userSpaceOnUse"><stop stop-color="#355580"></stop><stop offset="0.942708" stop-color="#4686C2"></stop></linearGradient><linearGradient id="paint7_linear_1707_7350" x1="58.8476" y1="28.6493" x2="58.8476" y2="44.9238" gradientUnits="userSpaceOnUse"><stop stop-color="#355580"></stop><stop offset="0.942708" stop-color="#4686C2"></stop></linearGradient><linearGradient id="paint8_linear_1707_7350" x1="41.2951" y1="53.6744" x2="41.2951" y2="65.8803" gradientUnits="userSpaceOnUse"><stop stop-color="#355580"></stop><stop offset="0.942708" stop-color="#4686C2"></stop></linearGradient><linearGradient id="paint9_linear_1707_7350" x1="61.2951" y1="53.7374" x2="61.2951" y2="55.7717" gradientUnits="userSpaceOnUse"><stop stop-color="#355580"></stop><stop offset="0.942708" stop-color="#4686C2"></stop></linearGradient><linearGradient id="paint10_linear_1707_7350" x1="61.2951" y1="63.7374" x2="61.2951" y2="65.7717" gradientUnits="userSpaceOnUse"><stop stop-color="#355580"></stop><stop offset="0.942708" stop-color="#4686C2"></stop></linearGradient><linearGradient id="paint11_linear_1707_7350" x1="61.2951" y1="58.7374" x2="61.2951" y2="60.7717" gradientUnits="userSpaceOnUse"><stop stop-color="#355580"></stop><stop offset="0.942708" stop-color="#4686C2"></stop></linearGradient></defs></svg>