<svg xmlns="http://www.w3.org/2000/svg" width="80" height="80" viewBox="0 0 80 80" fill="none"><g clip-path="url(#clip0_1707_7364)"><path d="M54.8622 45.1059L44.0008 38.4321C43.8685 38.3507 43.7163 38.2956 43.5627 38.2715L40.1622 37.6715C39.5332 37.5603 38.9154 37.9931 38.8044 38.6221C38.6935 39.2512 39.1258 39.869 39.7549 39.9799L42.9638 40.5462L53.6352 47.1032C54.1561 47.4234 54.8707 47.2679 55.2165 46.7648C55.5874 46.2248 55.4199 45.4489 54.8622 45.1059Z" fill="url(#paint0_linear_1707_7364)"></path><path d="M79.6112 45.4816C79.1691 45.0086 78.4275 44.9836 77.9545 45.4255L73.2031 49.8661L51.4316 28.3846L79.5562 2.02707C80.0284 1.58441 80.0525 0.842691 79.61 0.370503C79.1675 -0.101684 78.4256 -0.125747 77.9534 0.316753L48.9394 27.5077C48.4609 27.956 48.4509 28.7366 48.9176 29.1972L50.8434 31.0971L50.2287 31.6399L37.3567 30.5314C37.1581 30.5146 36.9517 30.5488 36.7705 30.6325L26.5716 35.2775C26.5419 35.2699 26.5122 35.2624 26.4814 35.2569L20.6148 34.2216L21.0892 33.0089C21.3237 32.4093 21.0308 31.7327 20.433 31.4938L1.68046 23.9929C1.07921 23.7521 0.397336 24.0447 0.157023 24.6458C-0.0834455 25.2468 0.208898 25.9289 0.809992 26.1693L18.4823 33.2383L8.06796 59.8522L1.6364 57.5743C1.02609 57.3583 0.356398 57.6775 0.140305 58.2879C-0.0757892 58.898 0.243742 59.5679 0.853898 59.784L8.35484 62.4405C8.94359 62.6491 9.61015 62.344 9.83749 61.7627L11.578 57.3149L16.1384 59.8705L15.6355 60.6858C14.2103 62.9957 14.9298 66.0344 17.2398 67.4597C18.4614 68.2135 19.9778 68.3922 21.3428 67.9504C21.5617 69.3729 22.3976 70.6422 23.6234 71.3985C24.845 72.1522 26.3612 72.331 27.7264 71.8891C27.9455 73.3116 28.7811 74.5808 30.0069 75.3372C31.2322 76.0933 32.7406 76.2713 34.1101 75.8293C34.3295 77.2512 35.165 78.5199 36.3905 79.276C38.1716 80.3749 40.5291 80.2107 42.1345 78.8651C42.5392 78.5258 42.8875 78.121 43.1647 77.6716L43.9642 76.376L44.6225 76.7804C46.4059 77.8761 48.7628 77.7074 50.3658 76.3588C50.7698 76.0188 51.1173 75.6133 51.3937 75.1635C51.9431 74.2693 52.1705 73.2671 52.1105 72.2915C52.4826 72.381 52.8636 72.4291 53.248 72.4291C54.9501 72.4291 56.5603 71.5315 57.4511 70.0818C57.9876 69.2083 58.2328 68.2126 58.1706 67.2102C58.5419 67.2993 58.922 67.3471 59.3051 67.3471C61.0073 67.3471 62.6176 66.4494 63.5083 64.9997C64.0453 64.1257 64.2903 63.1293 64.2277 62.1261C64.603 62.2155 64.9841 62.2622 65.3634 62.2622C67.0187 62.2622 68.6373 61.4288 69.5656 59.918C70.9866 57.6054 70.2612 54.568 67.9486 53.1471L67.1455 52.6536L69.8391 49.8393L72.3586 52.3252C72.8005 52.761 73.5287 52.7707 73.982 52.3472L79.5556 47.1383C80.0283 46.6963 80.0533 45.9546 79.6112 45.4816ZM22.0191 64.6244C21.2723 65.8343 19.6806 66.2111 18.4706 65.4649C17.2606 64.7183 16.8837 63.1266 17.6301 61.9166L24.1948 51.2774C24.9275 50.0899 26.4997 49.7016 27.7001 50.4108C28.9423 51.1452 29.2851 52.8482 28.5394 54.0571L22.0191 64.6244ZM28.4023 68.5632C27.6559 69.773 26.0641 70.15 24.8542 69.4036C23.6589 68.666 23.275 67.0526 24.0137 65.8554L29.2653 57.344C29.998 56.1566 31.5701 55.7682 32.7706 56.4774C34.0128 57.2118 34.3556 58.9147 33.6097 60.1236L28.4023 68.5632ZM34.7864 72.5019C34.4245 73.088 33.8561 73.4983 33.1861 73.6571C32.5156 73.816 31.8239 73.704 31.2378 73.3424C30.0426 72.6047 29.6587 70.9911 30.3975 69.7941L34.3362 63.4105C35.0689 62.223 36.6412 61.8347 37.8416 62.544C39.0837 63.2783 39.4266 64.9813 38.6808 66.1902L34.7864 72.5019ZM43.7514 72.2571L41.1698 76.4408C40.4322 77.6361 38.8187 78.0197 37.6214 77.2812C36.4262 76.5436 36.0425 74.9299 36.7811 73.7329L39.4069 69.4772C40.1395 68.2901 41.7119 67.9011 42.9122 68.6108C44.1544 69.345 44.4972 71.0482 43.7514 72.2571ZM65.102 51.398L59.2923 47.8282C58.7536 47.4971 58.0112 47.6744 57.6803 48.2132C57.3492 48.7519 57.5266 49.4943 58.0653 49.8252L66.7211 55.1438C67.9323 55.8882 68.3123 57.4791 67.5681 58.6905C66.8237 59.9018 65.2327 60.2818 64.0212 59.5375L54.738 53.8332C54.1866 53.4941 53.4647 53.6668 53.1259 54.2182C52.7872 54.7696 52.9595 55.4915 53.5109 55.8302L60.6641 60.2255C61.8608 60.9608 62.2475 62.5738 61.5111 63.7722C60.7758 64.969 59.1628 65.3555 57.9644 64.6193L51.4819 60.636C50.9303 60.2971 50.2086 60.4696 49.8698 61.021C49.5311 61.5724 49.7034 62.2943 50.2548 62.633L54.607 65.3072C55.8036 66.0427 56.1905 67.6554 55.4541 68.854C54.7187 70.0505 53.1058 70.4374 51.9073 69.701C51.9073 69.701 48.0798 67.3515 48.0441 67.3343C47.5089 67.0758 46.8545 67.2597 46.537 67.7766C46.1983 68.328 46.3706 69.0499 46.922 69.3886L48.55 70.389C49.7612 71.1333 50.1411 72.7243 49.3969 73.9357C48.6616 75.1324 47.0486 75.519 45.8501 74.7827L45.1958 74.3805L45.7469 73.4872C46.4514 72.3454 46.67 70.9391 46.3466 69.6291C46.0275 68.3363 45.2316 67.2579 44.1058 66.5924C43.2273 66.0733 42.2447 65.863 41.2878 65.9276C41.4675 65.1557 41.4684 64.3422 41.2759 63.5624C40.9569 62.2696 40.1609 61.1911 39.0351 60.5257C38.1567 60.0065 37.1741 59.7961 36.2172 59.8607C36.7005 57.7844 35.8108 55.5505 33.9645 54.459C33.0861 53.9399 32.1034 53.7296 31.1466 53.794C31.6298 51.7177 30.7401 49.4838 28.8939 48.3922C26.6019 47.0374 23.5995 47.7794 22.2011 50.0457L17.3714 57.8732L12.4405 55.111L19.7433 36.4482L23.7195 37.1499C22.5886 38.5546 22.2706 40.5322 23.0675 42.2824C23.8922 44.093 25.6837 45.1644 27.5547 45.1643C28.2361 45.1643 28.9281 45.0221 29.5876 44.7218L36.4514 41.5955C37.0326 41.3308 37.297 40.6244 37.0322 40.0432C36.7675 39.4621 36.0611 39.1974 35.4798 39.4624L28.6159 42.5885C27.3223 43.1779 25.79 42.6046 25.2006 41.3107C24.6114 40.0168 25.1845 38.4847 26.4784 37.8954L37.4619 32.893L50.5272 34.0182C50.5608 34.0211 50.5944 34.0225 50.6278 34.0225C50.9122 34.0225 51.1883 33.9189 51.4034 33.7293L52.5156 32.7472L68.1697 48.1924L65.102 51.398Z" fill="url(#paint1_linear_1707_7364)"></path></g><defs><linearGradient id="paint0_linear_1707_7364" x1="55.4646" y1="37.6056" x2="55.4646" y2="45.4304" gradientUnits="userSpaceOnUse"><stop stop-color="#355580"></stop><stop offset="0.942708" stop-color="#4686C2"></stop></linearGradient><linearGradient id="paint1_linear_1707_7364" x1="80.167" y1="-0.402965" x2="80.167" y2="64.695" gradientUnits="userSpaceOnUse"><stop stop-color="#355580"></stop><stop offset="0.942708" stop-color="#4686C2"></stop></linearGradient><clipPath id="clip0_1707_7364"><rect width="80" height="80" fill="white"></rect></clipPath></defs></svg>