<svg xmlns="http://www.w3.org/2000/svg" width="73" height="80" viewBox="0 0 73 80" fill="none"><path d="M71.4821 10.7544L68.0635 7.74412L71.4821 4.73449C72.0137 4.26574 72.1956 3.53515 71.946 2.87231C71.6951 2.20886 71.0756 1.78039 70.367 1.78039H56.2203V1.17248C56.2203 0.524901 55.6954 0 55.0478 0C54.4002 0 53.8753 0.524901 53.8753 1.17248V16.9854L44.2458 22.2143C44.1927 21.7907 44.0658 21.3745 43.865 20.9826L42.5082 18.3337C41.5768 16.5149 39.3392 15.794 37.5216 16.7248L36.4724 17.2619C35.5911 17.7136 34.9386 18.4802 34.6347 19.4226C34.3307 20.3643 34.4119 21.3684 34.8635 22.2491L36.2203 24.8986C36.5371 25.5169 37.0053 26.0064 37.5558 26.3494C36.8356 27.3193 36.4938 28.5119 36.1422 29.7509L35.8895 30.6457C35.7131 31.2689 36.0757 31.917 36.6989 32.0928C36.8051 32.1233 36.9125 32.1374 37.0181 32.1374C37.5295 32.1374 37.9995 31.8005 38.146 31.2835L38.3987 30.3906C38.9126 28.5784 39.2281 27.608 40.2328 27.0623L42.0339 26.0839L42.2561 25.9704C42.3299 25.9326 42.3989 25.8898 42.4691 25.8477L55.306 18.8769C55.2248 20.4815 54.3612 21.9976 52.9391 22.8613L44.5913 27.9333C44.5815 27.9388 44.5718 27.9443 44.5626 27.9504L41.9643 29.5287C41.4114 29.8651 41.235 30.5865 41.5713 31.1401C41.8881 31.6619 42.5472 31.8475 43.0849 31.5856L41.1135 37.5451L39.6725 38.1359L35.754 39.7417L36.8832 35.75C37.059 35.1269 36.697 34.4787 36.0739 34.3023C35.4501 34.1253 34.8025 34.4885 34.6261 35.1116L32.8421 41.4208C32.8189 41.502 32.8036 41.5911 32.7999 41.6759L32.333 50.2526C32.319 50.5797 32.3886 51.198 32.2372 51.5172L27.0517 62.4266H23.2834C21.0757 62.4266 19.2801 64.2223 19.2801 66.4293V69.8137C18.7747 69.5824 18.2138 69.453 17.6224 69.453H8.05267C5.84565 69.453 4.05 71.248 4.05 73.4557V77.6549H1.23506C0.587478 77.6549 0.0625763 78.1798 0.0625763 78.8274C0.0625763 79.4749 0.587478 79.9998 1.23506 79.9998H70.3658C71.0134 79.9998 71.5383 79.4749 71.5383 78.8274C71.5383 78.1798 71.0134 77.6549 70.3658 77.6549H67.3165V47.4334C67.3165 45.2263 65.5208 43.4307 63.3138 43.4307H56.2203V22.976C57.5203 21.2139 58.0019 18.9044 57.3983 16.7096C57.3037 16.3647 57.0565 16.0815 56.7269 15.9417C56.5651 15.8728 56.3918 15.8423 56.2203 15.849V13.7085H70.3664C71.0756 13.7085 71.6951 13.28 71.9454 12.6172C72.1956 11.9543 72.0137 11.2231 71.4821 10.7544ZM36.8667 20.1428C36.9784 19.7967 37.2177 19.5147 37.5411 19.3493L38.5903 18.8122C38.7881 18.7109 38.9993 18.6627 39.208 18.6627C39.7024 18.6627 40.1803 18.9331 40.4208 19.4024L41.7782 22.052C42.095 22.6709 41.8899 23.421 41.3265 23.8L40.9445 24.0069L40.1382 24.4201C39.4711 24.7619 38.6495 24.497 38.3077 23.8293L36.9503 21.1804C36.7849 20.8569 36.755 20.4882 36.8667 20.1428ZM34.5107 62.7873C34.1122 62.6055 33.6788 62.4864 33.2235 62.4443L34.5107 60.7347V62.7873ZM40.0778 53.3397C40.6417 52.6641 40.7974 51.8749 40.9231 51.2389C40.9548 51.0875 41.5334 47.9272 41.5334 47.9272C41.5334 47.9272 42.0809 48.2683 42.1383 48.2928C42.178 48.3105 42.206 48.3495 42.2103 48.3953L42.8481 54.879H38.9187L40.0778 53.3397ZM47.0113 46.8682L46.0213 54.8735H45.2041L44.5443 48.1658C44.4601 47.3064 43.9339 46.5563 43.1631 46.1834L41.9839 45.4357L42.7694 41.0821C42.7694 41.0821 46.0787 45.0133 46.1556 45.1134C46.8404 46.0039 47.0748 46.3604 47.0113 46.8682ZM34.3466 52.5426C34.5834 51.8297 34.6932 51.104 34.6749 50.3661L35.101 42.5439L40.5239 40.3216L39.5382 45.7818C39.5352 45.7964 39.5321 45.8117 39.5303 45.8263L38.7148 50.3411C38.6086 50.8086 38.5159 51.5178 38.2241 51.903L30.3012 62.4266H29.6481L34.3466 52.5426ZM6.39496 73.4551C6.39496 72.5414 7.13837 71.798 8.05267 71.798H17.6224C18.5367 71.798 19.2807 72.5414 19.2807 73.4551V77.6549H6.39496V73.4551ZM21.625 73.4551V66.4293C21.625 65.515 22.3691 64.7716 23.2834 64.7716H32.853C33.7673 64.7716 34.5107 65.515 34.5107 66.4293V77.6549H21.6256V73.4551H21.625ZM64.9715 47.4334V77.6549H52.0864V70.6249C52.0864 69.9773 51.5615 69.4524 50.9139 69.4524C50.2657 69.4524 49.7408 69.9773 49.7408 70.6249V77.6549H36.8557V58.8811C36.8557 57.9674 37.5991 57.224 38.5134 57.224H48.0831C48.9974 57.224 49.7408 57.9674 49.7408 58.8811V64.7588C49.7408 65.4064 50.2657 65.9313 50.9133 65.9313C51.5615 65.9313 52.0858 65.4064 52.0858 64.7588V47.4334C52.0858 46.5191 52.8298 45.7757 53.7441 45.7757H55.0356C55.0393 45.7757 55.0435 45.7763 55.0478 45.7763C55.0515 45.7763 55.0558 45.7757 55.0594 45.7757H63.3132C64.2275 45.7757 64.9715 46.5197 64.9715 47.4334ZM53.7441 43.4307C51.5371 43.4307 49.7414 45.2263 49.7414 47.4334V55.2398C49.3215 55.0481 48.8637 54.9266 48.3822 54.8912L49.3386 47.1569C49.5266 45.6493 48.7575 44.6502 48.0141 43.6834C47.9354 43.5808 43.3779 38.1695 43.3779 38.1695L46.1739 29.7161L53.8753 25.0372V43.4307H53.7441ZM56.2203 11.3629V4.12597H68.6245L65.9529 6.47826C65.5892 6.79869 65.3804 7.26012 65.3804 7.74474C65.3804 8.22935 65.5892 8.69078 65.9529 9.01121L68.6245 11.3635H56.2203V11.3629Z" fill="url(#paint0_linear_1472_1137)"></path><defs><linearGradient id="paint0_linear_1472_1137" x1="36.0595" y1="0" x2="36.0595" y2="79.9998" gradientUnits="userSpaceOnUse"><stop offset="0.302083" stop-color="#F5B236"></stop><stop offset="1" stop-color="#F2994A"></stop></linearGradient></defs></svg>