<svg xmlns="http://www.w3.org/2000/svg" width="78" height="78" viewBox="0 0 78 78" fill="none"><path d="M74 60.25H65.25V32.75H74.0175C76.075 32.75 77.75 31.0763 77.75 29.0175C77.75 27.8238 77.1725 26.6938 76.2075 25.9938L41.995 1.22128C40.2425 -0.0499706 37.7563 -0.0487207 36.0037 1.22128L1.7925 25.9938C0.8275 26.6938 0.25 27.825 0.25 29.0175C0.25 31.0763 1.925 32.75 3.9825 32.75H12.75V60.25H4C1.9325 60.25 0.25 61.9325 0.25 64V66.5C0.25 67.4638 0.62625 68.335 1.225 69C0.62625 69.665 0.25 70.5363 0.25 71.5V74C0.25 76.0675 1.9325 77.75 4 77.75H24C24.9638 77.75 25.835 77.3738 26.5 76.775C27.165 77.375 28.0362 77.75 29 77.75H49C49.9637 77.75 50.835 77.3738 51.5 76.775C52.165 77.375 53.0363 77.75 54 77.75H74C76.0675 77.75 77.75 76.0675 77.75 74V71.5C77.75 70.5363 77.3737 69.665 76.775 69C77.375 68.335 77.75 67.4638 77.75 66.5V64C77.75 61.9325 76.0675 60.25 74 60.25ZM75.25 64V66.5C75.25 67.1888 74.69 67.75 74 67.75H54C53.31 67.75 52.75 67.1888 52.75 66.5V64C52.75 63.3113 53.31 62.75 54 62.75H55.25V65.25H57.75V62.75H60.25V65.25H62.75V62.75H65.25V65.25H67.75V62.75H70.25V65.25H72.75V62.75H74C74.69 62.75 75.25 63.3113 75.25 64ZM29 67.75C28.31 67.75 27.75 67.1888 27.75 66.5V64C27.75 63.3113 28.31 62.75 29 62.75H30.25V65.25H32.75V62.75H35.25V65.25H37.75V62.75H40.25V65.25H42.75V62.75H45.25V65.25H47.75V62.75H49C49.69 62.75 50.25 63.3113 50.25 64V66.5C50.25 67.1888 49.69 67.75 49 67.75H29ZM27.75 51.5V49C27.75 48.3113 28.31 47.75 29 47.75H30.25V50.25H32.75V47.75H35.25V50.25H37.75V47.75H40.25V50.25H42.75V47.75H45.25V50.25H47.75V47.75H49C49.69 47.75 50.25 48.3113 50.25 49V51.5C50.25 52.1888 49.69 52.75 49 52.75H29C28.31 52.75 27.75 52.1888 27.75 51.5ZM29 60.25C28.31 60.25 27.75 59.6888 27.75 59V56.5C27.75 55.8113 28.31 55.25 29 55.25H30.25V57.75H32.75V55.25H35.25V57.75H37.75V55.25H40.25V57.75H42.75V55.25H45.25V57.75H47.75V55.25H49C49.69 55.25 50.25 55.8113 50.25 56.5V59C50.25 59.6888 49.69 60.25 49 60.25H29ZM3.9825 30.25C3.3025 30.25 2.75 29.6975 2.75 29.0175C2.75 28.6238 2.94 28.25 3.26 28.0188L37.4713 3.24503C38.365 2.59753 39.6338 2.59753 40.5275 3.24503L74.7387 28.0188C75.06 28.25 75.25 28.6238 75.25 29.0175C75.25 29.6975 74.6975 30.25 74.0175 30.25H62.75V60.25H54C53.4062 60.25 52.8512 60.4013 52.3512 60.6488C52.5988 60.1488 52.75 59.5938 52.75 59V56.5C52.75 55.5363 52.3738 54.665 51.775 54C52.375 53.335 52.75 52.4638 52.75 51.5V49C52.75 46.9325 51.0675 45.25 49 45.25H40.25V40.25H46.5C52.7038 40.25 57.75 35.2025 57.75 29V27.75H49C45.4675 27.75 42.3138 29.39 40.25 31.945V30.25V29C40.25 22.7975 35.2038 17.75 29 17.75H20.25V19C20.25 25.2025 25.2962 30.25 31.5 30.25H37.75V39V40.25V45.25H29C26.9325 45.25 25.25 46.9325 25.25 49V51.5C25.25 52.4638 25.6263 53.335 26.225 54C25.625 54.665 25.25 55.5363 25.25 56.5V59C25.25 59.5938 25.4013 60.1488 25.6488 60.6488C25.1488 60.4013 24.5938 60.25 24 60.25H15.25V30.25H3.9825ZM40.3387 37.75C40.9462 33.515 44.5988 30.25 49 30.25H55.1613C54.5538 34.485 50.9012 37.75 46.5 37.75H40.3387ZM37.6613 27.75H31.5C27.0988 27.75 23.4475 24.485 22.8387 20.25H29C33.4012 20.25 37.0525 23.515 37.6613 27.75ZM2.75 64C2.75 63.3113 3.31 62.75 4 62.75H5.25V65.25H7.75V62.75H10.25V65.25H12.75V62.75H15.25V65.25H17.75V62.75H20.25V65.25H22.75V62.75H24C24.69 62.75 25.25 63.3113 25.25 64V66.5C25.25 67.1888 24.69 67.75 24 67.75H4C3.31 67.75 2.75 67.1888 2.75 66.5V64ZM24 75.25H4C3.31 75.25 2.75 74.6888 2.75 74V71.5C2.75 70.8113 3.31 70.25 4 70.25H5.25V72.75H7.75V70.25H10.25V72.75H12.75V70.25H15.25V72.75H17.75V70.25H20.25V72.75H22.75V70.25H24C24.69 70.25 25.25 70.8113 25.25 71.5V74C25.25 74.6888 24.69 75.25 24 75.25ZM49 75.25H29C28.31 75.25 27.75 74.6888 27.75 74V71.5C27.75 70.8113 28.31 70.25 29 70.25H30.25V72.75H32.75V70.25H35.25V72.75H37.75V70.25H40.25V72.75H42.75V70.25H45.25V72.75H47.75V70.25H49C49.69 70.25 50.25 70.8113 50.25 71.5V74C50.25 74.6888 49.69 75.25 49 75.25ZM75.25 74C75.25 74.6888 74.69 75.25 74 75.25H54C53.31 75.25 52.75 74.6888 52.75 74V71.5C52.75 70.8113 53.31 70.25 54 70.25H55.25V72.75H57.75V70.25H60.25V72.75H62.75V70.25H65.25V72.75H67.75V70.25H70.25V72.75H72.75V70.25H74C74.69 70.25 75.25 70.8113 75.25 71.5V74Z" fill="url(#paint0_linear_1472_1121)"></path><defs><linearGradient id="paint0_linear_1472_1121" x1="39" y1="0.268311" x2="39" y2="77.75" gradientUnits="userSpaceOnUse"><stop offset="0.302083" stop-color="#F5B236"></stop><stop offset="1" stop-color="#F2994A"></stop></linearGradient></defs></svg>