<svg xmlns="http://www.w3.org/2000/svg" width="80" height="80" viewBox="0 0 80 80" fill="none"><path d="M60 0.0526123H47.0511C46.1883 0.0526123 45.4886 0.752144 45.4886 1.61511C45.4886 2.47808 46.1883 3.17761 47.0511 3.17761H60C69.305 3.17761 76.875 10.7478 76.875 20.0526C76.875 29.3575 69.305 36.9276 60 36.9276H40.5988V34.5715C40.5988 31.9868 38.4959 29.884 35.9111 29.884C33.3264 29.884 31.2236 31.9868 31.2236 34.5715V36.9276H20C10.6952 36.9276 3.125 29.3575 3.125 20.0526C3.125 10.7478 10.6952 3.17761 20 3.17761H32.9886C33.8516 3.17761 34.5511 2.47808 34.5511 1.61511C34.5511 0.752144 33.8516 0.0526123 32.9886 0.0526123H20C8.97187 0.0526123 0 9.02449 0 20.0526C0 31.0807 8.97187 40.0526 20 40.0526H31.2238V51.7893L30.56 50.817C28.8739 48.3468 25.4922 47.7081 23.0211 49.3928C20.9284 50.8196 20.1038 53.4667 21.0156 55.8298L25.5144 67.4881C26.8406 70.9253 29.0411 73.9342 31.9033 76.2356L31.8784 78.367C31.8736 78.7845 32.0361 79.1867 32.3297 79.4836C32.6231 79.7806 33.0233 79.9476 33.4409 79.9476H53.1617C54.0177 79.9476 54.7142 79.259 54.7241 78.4032L54.7511 76.0809C57.7205 72.659 59.3489 68.3078 59.3489 63.7603V53.8906C59.3489 51.3059 57.2461 49.2031 54.6614 49.2031C53.8417 49.2031 53.0709 49.4151 52.3998 49.7864C51.5731 48.4503 50.0947 47.5579 48.4114 47.5579C47.3688 47.5579 46.4048 47.9004 45.6253 48.4784C44.7673 47.5371 43.5322 46.9456 42.1614 46.9456C41.6138 46.9456 41.0881 47.0409 40.5991 47.2143V40.0526H60C71.028 40.0526 80 31.0807 80 20.0526C80 9.02449 71.028 0.0526123 60 0.0526123ZM42.1611 50.0706C43.0227 50.0706 43.7236 50.7715 43.7236 51.6331V55.3396C43.7236 56.2026 44.4233 56.9021 45.2861 56.9021C46.1489 56.9021 46.8486 56.2026 46.8486 55.3396V52.2454C46.8486 51.3839 47.5495 50.6829 48.4111 50.6829C49.2727 50.6829 49.9736 51.3839 49.9736 52.2454V55.3396C49.9736 56.2026 50.6733 56.9021 51.5361 56.9021C52.3989 56.9021 53.0986 56.2026 53.0986 55.3396V53.8906C53.0986 53.029 53.7995 52.3281 54.6611 52.3281C55.5227 52.3281 56.2236 53.029 56.2236 53.8906V63.7603C56.2236 67.7229 54.7409 71.5065 52.0486 74.414C51.7855 74.6982 51.6372 75.0701 51.6328 75.4575L51.6169 76.8225H35.0214L35.0369 75.4937C35.0427 74.9928 34.808 74.5197 34.4059 74.2211C31.7066 72.2168 29.64 69.4996 28.4297 66.3629L23.9309 54.7047C23.5442 53.7025 23.8941 52.5798 24.7816 51.9746C25.8294 51.26 27.2638 51.5311 27.9787 52.5787L31.4955 57.7309C31.8817 58.297 32.5919 58.5451 33.2469 58.3429C33.9017 58.1407 34.3484 57.5353 34.3484 56.85V34.5717C34.3484 33.7101 35.0494 33.0092 35.9109 33.0092C36.7725 33.0092 37.4734 33.7101 37.4734 34.5717V55.3396C37.4734 56.2026 38.173 56.9021 39.0359 56.9021C39.8989 56.9021 40.5984 56.2026 40.5984 55.3396V51.6331C40.5987 50.7715 41.2995 50.0706 42.1611 50.0706Z" fill="url(#paint0_linear_1472_1127)"></path><path d="M61.2406 27.8651C62.1034 27.8651 62.8031 27.1656 62.8031 26.3026V18.8382L68.3913 26.9301C68.8503 27.5934 69.6163 27.8761 70.3423 27.649C71.0836 27.4176 71.5625 26.7237 71.5625 25.8815V13.8026C71.5625 12.9396 70.8628 12.2401 70 12.2401C69.1372 12.2401 68.4375 12.9396 68.4375 13.8026V21.4978L62.5264 12.9381C62.1378 12.3754 61.4289 12.1307 60.7756 12.3343C60.1228 12.5378 59.6783 13.1421 59.6783 13.8261V26.3028C59.6781 27.1656 60.3778 27.8651 61.2406 27.8651Z" fill="url(#paint1_linear_1472_1127)"></path><path d="M56.9695 26.3026V13.8026C56.9695 12.9396 56.2698 12.2401 55.407 12.2401C54.5442 12.2401 53.8445 12.9396 53.8445 13.8026V26.3026C53.8445 27.1656 54.5442 27.8651 55.407 27.8651C56.2698 27.8651 56.9695 27.1656 56.9695 26.3026Z" fill="url(#paint2_linear_1472_1127)"></path><path d="M44.018 27.8651C48.3256 27.8651 51.8303 24.3604 51.8303 20.0526C51.8303 15.7448 48.3256 12.2401 44.018 12.2401C39.7102 12.2401 36.2055 15.7448 36.2055 20.0526C36.2055 24.3604 39.7102 27.8651 44.018 27.8651ZM44.018 15.3651C46.6027 15.3651 48.7053 17.4679 48.7053 20.0526C48.7053 22.6373 46.6027 24.7401 44.018 24.7401C41.4333 24.7401 39.3305 22.6373 39.3305 20.0526C39.3305 17.4679 41.4333 15.3651 44.018 15.3651Z" fill="url(#paint3_linear_1472_1127)"></path><path d="M17.1109 13.707C15.1358 12.5875 12.5759 12.8684 10.8944 14.5502C9.91625 15.5281 9.37766 16.8286 9.37766 18.2117C9.37766 19.5949 9.91625 20.8953 10.8944 21.8733L15.1025 26.0814C15.6567 26.6356 16.3848 26.9127 17.1127 26.9127C17.8406 26.9127 18.5686 26.6356 19.123 26.0814L23.3309 21.8733C24.3091 20.8953 24.8477 19.5949 24.8477 18.2117C24.8477 16.8286 24.3091 15.5281 23.3309 14.5502C22.353 13.572 21.0525 13.0334 19.6694 13.0334C18.7577 13.0336 17.8819 13.2675 17.1109 13.707ZM21.1211 16.76C21.5089 17.1478 21.7225 17.6634 21.7225 18.2119C21.7225 18.7603 21.5089 19.276 21.1211 19.6638L17.1127 23.672L13.1041 19.6635C12.7162 19.2756 12.5027 18.76 12.5027 18.2116C12.5027 17.6631 12.7162 17.1475 13.1041 16.7597C13.5044 16.3594 14.0302 16.1592 14.5559 16.1592C15.0817 16.1592 15.6075 16.3594 16.0078 16.7597C16.3008 17.0527 16.6983 17.2174 17.1127 17.2174C17.527 17.2174 17.9245 17.0527 18.2175 16.7597C18.6053 16.3719 19.1209 16.1583 19.6694 16.1583C20.2178 16.1583 20.7333 16.372 21.1211 16.76Z" fill="url(#paint4_linear_1472_1127)"></path><path d="M31.7683 27.3803C33.0573 26.6646 33.8583 25.2901 33.8583 23.7931V13.8026C33.8583 12.9396 33.1587 12.2401 32.2958 12.2401C31.4328 12.2401 30.7333 12.9396 30.7333 13.8026V23.7931C30.7333 24.1554 30.5488 24.4831 30.2516 24.6479C29.6902 24.9592 29.0244 24.3357 28.9959 24.3086C28.7134 24.0281 28.3289 23.8596 27.8994 23.8596C27.0364 23.8596 26.3369 24.5592 26.3369 25.4221C26.3369 25.8481 26.5163 26.2421 26.7927 26.524C27.4042 27.1251 28.5778 27.8715 29.9192 27.8715C30.5086 27.8717 31.1352 27.7318 31.7683 27.3803Z" fill="url(#paint5_linear_1472_1127)"></path><path d="M26.7927 26.5242C26.7825 26.5143 26.8025 26.5342 26.7927 26.5242V26.5242Z" fill="url(#paint6_linear_1472_1127)"></path><path d="M40.0203 3.17773C40.8833 3.17773 41.5828 2.47818 41.5828 1.61523C41.5828 0.752289 40.8833 0.0527344 40.0203 0.0527344C39.1574 0.0527344 38.4578 0.752289 38.4578 1.61523C38.4578 2.47818 39.1574 3.17773 40.0203 3.17773Z" fill="url(#paint7_linear_1472_1127)"></path><defs><linearGradient id="paint0_linear_1472_1127" x1="40" y1="0.0526123" x2="40" y2="79.9476" gradientUnits="userSpaceOnUse"><stop offset="0.302083" stop-color="#F5B236"></stop><stop offset="1" stop-color="#F2994A"></stop></linearGradient><linearGradient id="paint1_linear_1472_1127" x1="65.6204" y1="12.2401" x2="65.6204" y2="27.8651" gradientUnits="userSpaceOnUse"><stop offset="0.302083" stop-color="#F5B236"></stop><stop offset="1" stop-color="#F2994A"></stop></linearGradient><linearGradient id="paint2_linear_1472_1127" x1="55.407" y1="12.2401" x2="55.407" y2="27.8651" gradientUnits="userSpaceOnUse"><stop offset="0.302083" stop-color="#F5B236"></stop><stop offset="1" stop-color="#F2994A"></stop></linearGradient><linearGradient id="paint3_linear_1472_1127" x1="44.0179" y1="12.2401" x2="44.0179" y2="27.8651" gradientUnits="userSpaceOnUse"><stop offset="0.302083" stop-color="#F5B236"></stop><stop offset="1" stop-color="#F2994A"></stop></linearGradient><linearGradient id="paint4_linear_1472_1127" x1="17.1127" y1="13.0334" x2="17.1127" y2="26.9127" gradientUnits="userSpaceOnUse"><stop offset="0.302083" stop-color="#F5B236"></stop><stop offset="1" stop-color="#F2994A"></stop></linearGradient><linearGradient id="paint5_linear_1472_1127" x1="30.0976" y1="12.2401" x2="30.0976" y2="27.8715" gradientUnits="userSpaceOnUse"><stop offset="0.302083" stop-color="#F5B236"></stop><stop offset="1" stop-color="#F2994A"></stop></linearGradient><linearGradient id="paint6_linear_1472_1127" x1="26.7926" y1="26.5214" x2="26.7926" y2="26.5271" gradientUnits="userSpaceOnUse"><stop offset="0.302083" stop-color="#F5B236"></stop><stop offset="1" stop-color="#F2994A"></stop></linearGradient><linearGradient id="paint7_linear_1472_1127" x1="40.0203" y1="0.0527344" x2="40.0203" y2="3.17773" gradientUnits="userSpaceOnUse"><stop offset="0.302083" stop-color="#F5B236"></stop><stop offset="1" stop-color="#F2994A"></stop></linearGradient></defs></svg>